# xmcd
#
# Track frame offsets:
#	150
#	12055
#	31033
#	47999
#	66999
#	85035
#	107422
#	128577
#	161265
#	185660
#	210506
#	226259
#	244892
#	261057
#	277778
#	300202
#	320847
#	337349
#
# Disc length: 4688 seconds
#
# Revision: 0
# Processed by: cddbd v1.5.2PL0 Copyright (c) Steve Scherf et al.
# Submitted via: EasyCDDAExtractor 10.2.0.1
#
DISCID=e8124e12
DTITLE=Various Artist - RAINDROPS
DYEAR=1900
DGENRE=
TTITLE0=Jonathan Richman and The Modern - Egyptian Reggae
TTITLE1=Fine Youg Cannibals - Johnny Come Home
TTITLE2=IN-GRID - TU ES FOUTU (Chill Version)
TTITLE3=Astrud Gilberto - Who Needs Forever?
TTITLE4=Gabin - Un Histoire D'amoure
TTITLE5=IKKO PATRELAKIS - MY LIFE
TTITLE6=IRO - MONH MOU
TTITLE7=LEVITATION  - MORE THAN EVER PE
TTITLE8=Luciano Supervielle feat. Adriana Varela - Perfume
TTITLE9=REPLIQUE FEAT. SHIRIN - SUCH A SHAME
TTITLE10=Sao Vicente feat. Marlene - Shot The Sheriff
TTITLE11=THIEVERY CORPORATION - IL GRANDE SILENCIO
TTITLE12=ΤΣΑΤΣΟΥ - ΑΓΓΕΛΕ ΜΟΥ
TTITLE13=ORLANDO  - GIVE BEAUTY
TTITLE14=OPERATICA   - MON AMOUR
TTITLE15=Gabin - Into My Soul (Album Version)
TTITLE16=Sarah Brightman - Dust In The Wind
TTITLE17=BRAZILERO - INSTRUMENTAL
EXTD=
EXTT0=
EXTT1=
EXTT2=
EXTT3=
EXTT4=
EXTT5=
EXTT6=
EXTT7=
EXTT8=
EXTT9=
EXTT10=
EXTT11=
EXTT12=
EXTT13=
EXTT14=
EXTT15=
EXTT16=
EXTT17=
PLAYORDER=
